<svg width="117" height="117" viewBox="0 0 117 117" fill="none" xmlns="http://www.w3.org/2000/svg">
<path d="M94.4433 79.0679C82.8408 99.1642 57.1474 106.04 37.0616 94.4433C16.9758 82.8468 10.0836 57.1578 21.6862 37.0616C33.2888 16.9653 58.9822 10.0897 79.0679 21.6862C99.1537 33.2827 106.046 58.9717 94.4433 79.0679Z" fill="url(#paint0_linear_1_52)" stroke="url(#paint1_linear_1_52)" stroke-miterlimit="10"/>
<path d="M67.9126 62.3559C67.5199 61.1972 66.6657 60.197 65.35 59.3558C67.4992 59.0717 68.8494 57.7863 69.4013 55.4997C69.6076 54.6727 69.6267 53.9001 69.4584 53.1808C69.2898 52.4612 68.9501 51.8113 68.4374 51.2303C67.9253 50.649 67.3275 50.1338 66.6458 49.6844C65.9639 49.235 65.1533 48.7983 64.2145 48.3749L65.8184 43.7863L62.9868 42.7965L61.4274 47.2577C60.9371 47.0863 60.1851 46.837 59.1715 46.51L60.7435 42.0124L57.9115 41.0226L56.3076 45.6112C55.8987 45.4819 55.3021 45.2803 54.5175 45.0061L50.6256 43.6251L49.5818 46.6114L51.6228 47.3248C52.5545 47.6505 52.9557 48.254 52.8266 49.1351L50.9999 54.3611C51.1227 54.404 51.2185 54.4445 51.2879 54.4823L50.9935 54.3795L48.435 61.6991C48.1207 62.2838 47.657 62.4693 47.044 62.2551L45.0031 61.5417L43.2682 64.6747L46.946 65.9602C47.179 66.0417 47.5148 66.1625 47.9544 66.3223C48.3935 66.4827 48.7233 66.6014 48.944 66.6785L47.3211 71.3217L50.1535 72.3117L51.7574 67.7231C52.2678 67.9155 53.0135 68.1828 53.9942 68.5256L52.3968 73.0958L55.2284 74.0856L56.8514 69.4424C57.8738 69.7454 58.7972 69.9665 59.6222 70.1045C60.4475 70.2426 61.2655 70.2939 62.0762 70.2569C62.8866 70.2203 63.6053 70.0728 64.2318 69.815C64.8585 69.5577 65.4424 69.1553 65.9847 68.6091C66.526 68.0626 66.9907 67.3736 67.3775 66.5415C68.1272 64.9105 68.3053 63.515 67.9126 62.3559ZM58.0811 49.8064C58.1669 49.8364 58.4101 49.918 58.8107 50.0511C59.2115 50.1842 59.5444 50.2938 59.8101 50.3798C60.0758 50.466 60.4261 50.6054 60.861 50.7983C61.2957 50.9911 61.6556 51.1715 61.9408 51.3392C62.226 51.5069 62.5284 51.725 62.847 51.9931C63.1664 52.2612 63.401 52.534 63.5514 52.8113C63.7022 53.0888 63.8 53.4091 63.8448 53.7722C63.89 54.1353 63.8425 54.5172 63.7025 54.9177C63.5837 55.2576 63.4204 55.548 63.2126 55.7888C63.005 56.0295 62.7574 56.2053 62.4712 56.3164C62.185 56.4275 61.9004 56.5121 61.6187 56.5702C61.3372 56.6283 61.0004 56.6367 60.6092 56.5952C60.218 56.5539 59.879 56.5103 59.5925 56.4646C59.3058 56.4189 58.9571 56.3346 58.5461 56.2113C58.1351 56.0879 57.8242 55.9931 57.6138 55.9263C57.4032 55.8595 57.1183 55.7599 56.7586 55.6274C56.3989 55.4949 56.1888 55.4179 56.1274 55.3965L58.0813 49.8064L58.0811 49.8064ZM61.4796 64.9093C61.2652 65.1478 61.0303 65.3383 60.7744 65.4806C60.5183 65.6222 60.2124 65.7199 59.8571 65.7725C59.5017 65.8256 59.1658 65.851 58.8501 65.8497C58.5339 65.8486 58.1641 65.8141 57.7405 65.7481C57.3161 65.6815 56.949 65.6108 56.6376 65.5362C56.3268 65.4617 55.9599 65.3606 55.5365 65.2332C55.1136 65.1055 54.7853 65.0011 54.5525 64.9197C54.3195 64.8383 54.0264 64.7321 53.673 64.6019C53.3192 64.4719 53.0937 64.3896 52.9956 64.3553L55.1469 58.2005C55.2448 58.2347 55.5381 58.3306 56.0268 58.4875C56.5155 58.6446 56.9126 58.777 57.2191 58.8842C57.5256 58.9913 57.9424 59.1571 58.4692 59.3824C58.9956 59.607 59.4302 59.8199 59.7729 60.0214C60.115 60.2229 60.477 60.4752 60.8594 60.7794C61.2415 61.0831 61.5294 61.3914 61.7229 61.7043C61.9161 62.0174 62.0453 62.3754 62.1103 62.7797C62.1758 63.1839 62.1319 63.6045 61.9791 64.0417C61.8601 64.3819 61.6939 64.6706 61.4796 64.9093Z" fill="url(#paint2_linear_1_52)" stroke="#EAB486" stroke-width="0.3" stroke-miterlimit="10"/>
<defs>
<linearGradient id="paint0_linear_1_52" x1="-3.47835" y1="76.2387" x2="117.704" y2="44.1086" gradientUnits="userSpaceOnUse">
<stop stop-color="#EAB486"/>
<stop offset="0.0001" stop-color="#EAB486"/>
<stop offset="0.24" stop-color="#33271D"/>
<stop offset="0.5"/>
<stop offset="0.79" stop-color="#654E3A"/>
<stop offset="0.95" stop-color="#EAB486"/>
</linearGradient>
<linearGradient id="paint1_linear_1_52" x1="14.1507" y1="77.8052" x2="110.683" y2="51.9393" gradientUnits="userSpaceOnUse">
<stop stop-color="#EAB486"/>
<stop offset="0.5" stop-color="#1A1919"/>
<stop offset="1" stop-color="#EAB486"/>
</linearGradient>
<linearGradient id="paint2_linear_1_52" x1="48.3535" y1="40.8871" x2="61.2571" y2="67.8252" gradientUnits="userSpaceOnUse">
<stop stop-color="#FAEBD6"/>
<stop offset="0.67" stop-color="#EAB486"/>
</linearGradient>
</defs>
</svg>
