<svg width="40.000000" height="40.000000" viewBox="0 0 40 40" fill="none" xmlns="http://www.w3.org/2000/svg" xmlns:xlink="http://www.w3.org/1999/xlink">
	<desc>
			Created with Pixso.
	</desc>
	<defs>
		<clipPath id="clip0_186">
			<rect id="heroicons-solid/globe-asia-australia" width="40.000000" height="40.000000" fill="white" fill-opacity="0"/>
		</clipPath>
		<linearGradient x1="20.000000" y1="3.750000" x2="20.000000" y2="36.250000" id="paint_linear_0_187_0" gradientUnits="userSpaceOnUse">
			<stop stop-color="#EAB486"/>
			<stop offset="1.000000" stop-color="#FFFFFF"/>
		</linearGradient>
	</defs>
	<g clip-path="url(#clip0_186)">
		<path id="Union" d="M3.75 20C3.75 11.02 11.02 3.75 20 3.75C28.97 3.75 36.25 11.02 36.25 20C36.25 28.97 28.97 36.25 20 36.25C11.02 36.25 3.75 28.97 3.75 20ZM20 33.75C14.55 33.75 9.85 30.58 7.62 26L8.64 23.96C9.26 22.71 10.98 22.56 11.82 23.67L12.95 25.18C13.41 25.8 14.25 25.99 14.93 25.65C15.68 25.28 16.01 24.4 15.7 23.63L15 21.87L19.38 19.68C20.37 19.18 20.7 17.93 20.09 17.01C19.41 15.99 19.88 14.62 21.04 14.23L21.27 14.15C22.07 13.89 22.75 13.37 23.21 12.67L24.06 11.4C24.59 10.6 24.44 9.53 23.7 8.92L21.92 7.43C21.57 7.14 21.34 6.74 21.27 6.3C28.27 6.95 33.75 12.83 33.75 20C33.75 22.54 33.05 24.93 31.85 26.97C31.2 25.77 29.94 25 28.54 25L27.5 25L26.95 24.45C26.5 24 25.88 23.75 25.24 23.75C24.32 23.75 23.49 24.26 23.08 25.08L23.01 25.21C22.68 25.87 22.09 26.36 21.38 26.56L19.73 27.04C18.81 27.3 18.24 28.21 18.4 29.15L18.52 29.88C18.65 30.67 19.33 31.25 20.13 31.25C21.5 31.25 22.72 32.1 23.2 33.37C22.17 33.61 21.1 33.75 20 33.75ZM27.49 15C27.49 14.3 26.94 13.75 26.24 13.75C25.55 13.75 24.99 14.3 24.99 15C24.99 16.11 24.51 17.12 23.72 17.81C23.21 18.26 23.16 19.05 23.61 19.57C24.07 20.09 24.86 20.14 25.38 19.68C26.67 18.54 27.49 16.86 27.49 15Z" fill="url(#paint_linear_0_187_0)" fill-opacity="1.000000" fill-rule="evenodd"/>
	</g>
</svg>
