<svg width="40.000000" height="40.000000" viewBox="0 0 40 40" fill="none" xmlns="http://www.w3.org/2000/svg" xmlns:xlink="http://www.w3.org/1999/xlink">
	<desc>
			Created with Pixso.
	</desc>
	<defs>
		<clipPath id="clip0_198">
			<rect id="heroicons-outline/check-badge" width="40.000000" height="40.000000" transform="translate(-0.333252 0.000000)" fill="white" fill-opacity="0"/>
		</clipPath>
		<linearGradient x1="19.666748" y1="5.000000" x2="19.666748" y2="35.000000" id="paint_linear_0_199_0" gradientUnits="userSpaceOnUse">
			<stop stop-color="#EAB486"/>
			<stop offset="1.000000" stop-color="#FFFFFF"/>
		</linearGradient>
	</defs>
	<g clip-path="url(#clip0_198)">
		<path id="Vector" d="M32.01 25.11C32.34 27.04 31.76 29.11 30.27 30.6C28.77 32.1 26.71 32.68 24.78 32.34C23.64 33.95 21.78 35 19.66 35C17.55 35 15.68 33.95 14.55 32.34C12.61 32.68 10.55 32.1 9.05 30.6C7.56 29.11 6.98 27.04 7.32 25.11C5.71 23.98 4.66 22.11 4.66 20C4.66 17.88 5.71 16.01 7.32 14.88C6.98 12.95 7.56 10.88 9.05 9.39C10.55 7.89 12.61 7.31 14.55 7.65C15.68 6.04 17.55 5 19.66 5C21.78 5 23.64 6.04 24.78 7.65C26.71 7.31 28.77 7.89 30.27 9.39C31.76 10.88 32.34 12.95 32.01 14.88C33.61 16.01 34.66 17.88 34.66 20C34.66 22.11 33.61 23.98 32.01 25.11ZM14.66 21.25L18.41 25L24.66 16.25" stroke="url(#paint_linear_0_199_0)" stroke-opacity="1.000000" stroke-width="1.500000" stroke-linejoin="round" stroke-linecap="round"/>
	</g>
</svg>
