<svg width="41" height="40" viewBox="0 0 41 40" fill="none" xmlns="http://www.w3.org/2000/svg">
<path d="M15.6665 21.25L19.4165 25L25.6665 16.25M35.6665 20C35.6665 22.1138 34.6171 23.9825 33.0109 25.1136C33.3466 27.049 32.7672 29.112 31.2727 30.6066C29.7782 32.101 27.7152 32.6804 25.7799 32.3448C24.6487 33.9508 22.7802 35 20.6665 35C18.5529 35 16.6844 33.9509 15.5532 32.3449C13.6176 32.681 11.5541 32.1016 10.0593 30.6069C8.56461 29.1121 7.98525 27.0487 8.32127 25.113C6.71551 23.9819 5.6665 22.1135 5.6665 20C5.6665 17.8865 6.7156 16.018 8.32146 14.8868C7.98562 12.9513 8.56501 10.8881 10.0596 9.39345C11.5543 7.89881 13.6176 7.31943 15.5531 7.65531C16.6842 6.04925 18.5528 5 20.6665 5C22.7801 5 24.6487 6.04916 25.7798 7.65511C27.7154 7.31908 29.7789 7.89843 31.2737 9.39317C32.7684 10.8879 33.3477 12.9514 33.0117 14.887C34.6175 16.0181 35.6665 17.8865 35.6665 20Z" stroke="url(#paint0_linear_1_192)" stroke-width="1.5" stroke-linecap="round" stroke-linejoin="round"/>
<defs>
<linearGradient id="paint0_linear_1_192" x1="20.6665" y1="5" x2="20.6665" y2="35" gradientUnits="userSpaceOnUse">
<stop stop-color="#EAB486"/>
<stop offset="1" stop-color="#070707"/>
</linearGradient>
</defs>
</svg>
