<svg width="40" height="40" viewBox="0 0 40 40" fill="none" xmlns="http://www.w3.org/2000/svg">
<path d="M26.2496 13.75C26.94 13.75 27.4996 14.3096 27.4996 15C27.4996 16.8669 26.6795 18.5438 25.3841 19.6872C24.8665 20.144 24.0766 20.0948 23.6197 19.5772C23.1629 19.0596 23.2121 18.2697 23.7297 17.8128C24.5103 17.1239 24.9996 16.1198 24.9996 15C24.9996 14.3096 25.5593 13.75 26.2496 13.75Z" fill="url(#paint0_linear_1_182)"/>
<path fill-rule="evenodd" clip-rule="evenodd" d="M20 3.75C11.0254 3.75 3.75 11.0254 3.75 20C3.75 28.9746 11.0254 36.25 20 36.25C28.9746 36.25 36.25 28.9746 36.25 20C36.25 11.0254 28.9746 3.75 20 3.75ZM7.62483 26.0003C9.85326 30.5878 14.5573 33.75 20 33.75C21.1038 33.75 22.1771 33.6199 23.2057 33.3743C22.7274 32.1005 21.5073 31.25 20.138 31.25C19.3371 31.25 18.6535 30.6709 18.5218 29.8808L18.4002 29.1512C18.2434 28.2106 18.8177 27.3021 19.7346 27.0401L21.3825 26.5693C22.0946 26.3658 22.6886 25.8729 23.0198 25.2105L23.0806 25.0888C23.4909 24.2683 24.3295 23.75 25.2468 23.75C25.8891 23.75 26.5052 24.0052 26.9594 24.4594L27.5 25H28.5472C29.9448 25 31.2067 25.7744 31.8514 26.9762C33.0578 24.9311 33.75 22.5464 33.75 20C33.75 12.8363 28.2717 6.9522 21.2761 6.30843C21.3499 6.74671 21.578 7.14834 21.9247 7.43721L23.7057 8.92139C24.4418 9.53483 24.5969 10.6046 24.0654 11.4019L23.2137 12.6794C22.7511 13.3733 22.0705 13.8932 21.2794 14.1569L21.0423 14.2359C19.8878 14.6207 19.4153 15.998 20.0903 17.0105C20.7061 17.9342 20.373 19.1885 19.3801 19.685L15 21.875L15.7057 23.6391C16.0133 24.4083 15.68 25.285 14.9391 25.6555C14.2505 25.9998 13.4143 25.8023 12.9524 25.1865L11.8203 23.6771C10.984 22.562 9.26658 22.7168 8.64324 23.9635L7.62483 26.0003Z" fill="url(#paint1_linear_1_182)"/>
<defs>
<linearGradient id="paint0_linear_1_182" x1="20" y1="3.75" x2="20" y2="36.25" gradientUnits="userSpaceOnUse">
<stop stop-color="#EAB486"/>
<stop offset="1" stop-color="#33271D"/>
</linearGradient>
<linearGradient id="paint1_linear_1_182" x1="20" y1="3.75" x2="20" y2="36.25" gradientUnits="userSpaceOnUse">
<stop stop-color="#EAB486"/>
<stop offset="1" stop-color="#33271D"/>
</linearGradient>
</defs>
</svg>
