<svg width="177.000000" height="40.000000" viewBox="0 0 177 40" fill="none" xmlns="http://www.w3.org/2000/svg" xmlns:xlink="http://www.w3.org/1999/xlink">
	<desc>
			Created with Pixso.
	</desc>
	<defs>
		<linearGradient x1="-0.779305" y1="41.336704" x2="40.915916" y2="-1.344692" id="paint_linear_0_91_0" gradientUnits="userSpaceOnUse">
			<stop stop-color="#EAB486"/>
			<stop offset="0.240000" stop-color="#33271D"/>
			<stop offset="0.500000" stop-color="#000000"/>
			<stop offset="0.790000" stop-color="#654E3A"/>
			<stop offset="0.950000" stop-color="#EAB486"/>
		</linearGradient>
		<linearGradient x1="-0.000016" y1="19.500015" x2="41.110775" y2="19.500015" id="paint_linear_0_91_1" gradientUnits="userSpaceOnUse">
			<stop stop-color="#EAB486"/>
			<stop offset="0.500000" stop-color="#000000"/>
			<stop offset="1.000000" stop-color="#EAB486"/>
		</linearGradient>
		<linearGradient x1="9.779840" y1="10.637129" x2="24.101078" y2="25.373972" id="paint_linear_0_92_0" gradientUnits="userSpaceOnUse">
			<stop stop-color="#FAEBD6"/>
			<stop offset="0.670000" stop-color="#EAB486"/>
		</linearGradient>
		<linearGradient x1="19.131062" y1="18.551357" x2="27.923817" y2="26.283653" id="paint_linear_0_93_0" gradientUnits="userSpaceOnUse">
			<stop stop-color="#FAEBD6"/>
			<stop offset="0.670000" stop-color="#EAB486"/>
		</linearGradient>
	</defs>
	<rect id="Layer_1" width="138.333328" height="40.000000" transform="translate(0.000000 -0.500000)" fill="#FFFFFF" fill-opacity="0"/>
	<path id="Vector" d="M20.55 39.45C31.88 39.45 41.06 30.52 41.06 19.5C41.06 8.47 31.88 -0.46 20.55 -0.46C9.22 -0.46 0.04 8.47 0.04 19.5C0.04 30.52 9.22 39.45 20.55 39.45Z" fill="url(#paint_linear_0_91_0)" fill-opacity="1.000000" fill-rule="nonzero"/>
	<path id="Vector" d="M41.06 19.5C41.06 30.52 31.88 39.45 20.55 39.45C9.22 39.45 0.04 30.52 0.04 19.5C0.04 8.47 9.22 -0.46 20.55 -0.46C31.88 -0.46 41.06 8.47 41.06 19.5ZM38.77 12.55C39.63 14.69 40.06 17.01 40.06 19.5C40.06 21.98 39.63 24.3 38.77 26.44C37.82 28.8 36.35 30.95 34.36 32.89C32.55 34.65 30.56 35.99 28.39 36.92C25.99 37.94 23.38 38.45 20.55 38.45C17.72 38.45 15.11 37.94 12.71 36.92C10.54 35.99 8.56 34.65 6.74 32.89C4.75 30.95 3.28 28.8 2.33 26.44C1.47 24.3 1.04 21.98 1.04 19.5C1.04 17.01 1.47 14.69 2.33 12.55C3.28 10.19 4.75 8.04 6.74 6.1C8.56 4.34 10.54 3 12.71 2.07C15.11 1.05 17.72 0.54 20.55 0.54C23.38 0.54 25.99 1.05 28.39 2.07C30.56 3 32.55 4.34 34.36 6.1C36.35 8.04 37.82 10.19 38.77 12.55Z" fill="url(#paint_linear_0_91_1)" fill-opacity="1.000000" fill-rule="evenodd"/>
	<path id="Vector" d="M16.24 29.3C15.75 28.93 15.34 28.44 15.07 27.88C14.8 27.32 14.67 26.7 14.69 26.08C14.68 25.74 14.72 25.39 14.79 25.06L19.1 25.06C19.08 25.29 19.11 25.52 19.19 25.74C19.28 25.96 19.41 26.16 19.59 26.31C19.96 26.65 20.45 26.83 20.96 26.82C21.6 26.82 22.22 26.58 22.69 26.15C23.19 25.71 23.53 25.12 23.65 24.47C23.68 24.29 23.69 24.11 23.7 23.93C23.72 23.71 23.68 23.48 23.6 23.27C23.52 23.06 23.39 22.87 23.23 22.71C22.87 22.41 22.4 22.25 21.93 22.28C21.14 22.27 20.37 22.54 19.75 23.05L15.42 23.05L18.38 13.21L28.2 13.21C28.02 12.36 27.65 11.56 27.11 10.89C26.58 10.21 25.89 9.67 25.1 9.31C24.02 8.8 22.83 8.55 21.64 8.57L11.9 8.57L11.9 30.41L18.89 30.41C17.93 30.27 17.02 29.89 16.24 29.3Z" fill="url(#paint_linear_0_92_0)" fill-opacity="1.000000" fill-rule="nonzero"/>
	<path id="Vector" d="M15.07 27.88C14.8 27.32 14.67 26.7 14.69 26.08C14.68 25.74 14.72 25.39 14.79 25.06L19.1 25.06C19.08 25.29 19.11 25.52 19.19 25.74C19.28 25.96 19.41 26.16 19.59 26.31C19.96 26.65 20.45 26.83 20.96 26.82C21.6 26.82 22.22 26.58 22.69 26.15C23.19 25.71 23.53 25.12 23.65 24.47C23.68 24.29 23.69 24.11 23.7 23.93C23.72 23.71 23.68 23.48 23.6 23.27C23.52 23.06 23.39 22.87 23.23 22.71C22.87 22.41 22.4 22.25 21.93 22.28C21.14 22.27 20.37 22.54 19.75 23.05L15.42 23.05L18.38 13.21L28.2 13.21C28.02 12.36 27.65 11.56 27.11 10.89C26.58 10.21 25.89 9.67 25.1 9.31C24.02 8.8 22.83 8.55 21.64 8.57L11.9 8.57L11.9 30.41L18.89 30.41C17.93 30.27 17.02 29.89 16.24 29.3C15.75 28.93 15.34 28.44 15.07 27.88Z" stroke="#EAB486" stroke-opacity="1.000000" stroke-width="0.300000"/>
	<path id="Vector" d="M26.25 18.9C26.9 18.39 27.43 17.73 27.78 16.98C27.8 16.95 27.82 16.91 27.83 16.87L21.4 16.87L20.99 18.17L20.59 19.42C21.44 19 22.37 18.78 23.32 18.78C24.62 18.72 25.9 19.16 26.88 20.03C27.31 20.46 27.66 20.97 27.88 21.55C28.1 22.12 28.2 22.73 28.17 23.34C28.17 23.82 28.12 24.29 28.02 24.75C27.72 26.44 26.79 27.96 25.42 28.99C24.41 29.74 23.23 30.23 21.99 30.41C23.27 30.41 24.53 30.15 25.7 29.63C26.76 29.16 27.67 28.4 28.3 27.43C28.92 26.44 29.24 25.3 29.21 24.14C29.22 23.08 28.95 22.03 28.43 21.11C27.92 20.19 27.16 19.42 26.25 18.9Z" fill="url(#paint_linear_0_93_0)" fill-opacity="1.000000" fill-rule="nonzero"/>
	<path id="Vector" d="M27.78 16.98C27.8 16.95 27.82 16.91 27.83 16.87L21.4 16.87L20.99 18.17L20.59 19.42C21.44 19 22.37 18.78 23.32 18.78C24.62 18.72 25.9 19.16 26.88 20.03C27.31 20.46 27.66 20.97 27.88 21.55C28.1 22.12 28.2 22.73 28.17 23.34C28.17 23.82 28.12 24.29 28.02 24.75C27.72 26.44 26.79 27.96 25.42 28.99C24.41 29.74 23.23 30.23 21.99 30.41C23.27 30.41 24.53 30.15 25.7 29.63C26.76 29.16 27.67 28.4 28.3 27.43C28.92 26.44 29.24 25.3 29.21 24.14C29.22 23.08 28.95 22.03 28.43 21.11C27.92 20.19 27.16 19.42 26.25 18.9C26.9 18.39 27.43 17.73 27.78 16.98Z" stroke="#EAB486" stroke-opacity="1.000000" stroke-width="0.300000"/>
	<path id="B5 Exchange" d="M48 25.55L48 23.42L50.14 23.42L50.14 12.13L48 12.13L48 10L56.08 10Q57.52 10 58.59 10.48Q59.41 10.85 59.96 11.46Q60.11 11.64 60.25 11.84C60.66 12.42 60.86 13.11 60.86 13.91L60.86 14.13C60.86 14.84 60.73 15.42 60.45 15.88Q60.04 16.57 59.45 16.95C59.07 17.2 58.71 17.38 58.36 17.48L58.36 17.84C58.71 17.93 59.08 18.11 59.47 18.37Q59.51 18.4 59.55 18.42Q60.11 18.79 60.5 19.44Q60.93 20.13 60.93 21.24L60.93 21.46Q60.93 22.67 60.39 23.54L60.39 23.54Q60.36 23.6 60.32 23.66C59.91 24.27 59.34 24.74 58.61 25.06C57.9 25.39 57.07 25.55 56.13 25.55L48 25.55ZM67.77 25.86Q65.97 25.86 64.65 25.22C63.77 24.79 63.08 24.18 62.6 23.4C62.13 22.61 61.89 21.7 61.89 20.66L61.89 20.42L64.33 20.42L64.33 20.64C64.33 21.59 64.62 22.35 65.22 22.93C65.82 23.49 66.67 23.77 67.74 23.77C68.85 23.77 69.71 23.48 70.32 22.88C70.93 22.29 71.23 21.49 71.23 20.48L71.23 20.28Q71.23 19.25 70.76 18.51L70.76 18.51Q70.58 18.22 70.32 17.97Q70.05 17.71 69.73 17.52Q69.01 17.11 68.04 17.11C67.52 17.11 67.09 17.19 66.74 17.35C66.41 17.5 66.13 17.68 65.92 17.91C65.72 18.13 65.56 18.34 65.42 18.55L62.39 18.55L62.39 10L73.07 10L73.07 12.11L64.78 12.11L64.78 16.68L65.15 16.68C65.3 16.43 65.51 16.2 65.79 15.97Q66.22 15.62 66.9 15.4C67.36 15.25 67.9 15.17 68.54 15.17C69.48 15.17 70.33 15.37 71.09 15.77Q71.55 16 71.93 16.32L71.93 16.32Q72.52 16.81 72.94 17.51Q73.62 18.64 73.62 20.26L73.62 20.51Q73.62 22.13 72.91 23.33C72.44 24.13 71.77 24.75 70.89 25.2Q69.59 25.86 67.77 25.86ZM79.71 25.55L79.71 10L89.76 10L89.76 12.17L82.17 12.17L82.17 16.64L89.12 16.64L89.12 18.82L82.17 18.82L82.17 23.37L89.87 23.37L89.87 25.55L79.71 25.55ZM115.33 25.55L115.33 10L117.68 10L117.68 16.15L118.04 16.15Q118.27 15.73 118.68 15.33C118.97 15.06 119.34 14.85 119.8 14.68C120.27 14.51 120.86 14.42 121.57 14.42C122.43 14.42 123.18 14.6 123.83 14.97C124.5 15.34 125.02 15.87 125.4 16.55C125.78 17.22 125.97 18.02 125.97 18.97L125.97 25.55L123.62 25.55L123.62 19.15C123.62 18.2 123.38 17.51 122.9 17.06C122.41 16.6 121.74 16.37 120.89 16.37C119.92 16.37 119.14 16.68 118.55 17.31Q117.68 18.24 117.68 20.02L117.68 25.55L115.33 25.55ZM52.62 16.62L55.83 16.62Q56.99 16.62 57.7 16.06Q57.98 15.83 58.15 15.53Q58.4 15.09 58.4 14.51L58.4 14.28C58.4 13.63 58.17 13.12 57.7 12.75Q57.01 12.17 55.83 12.17L52.62 12.17L52.62 16.62ZM108.21 25.86C107.13 25.86 106.15 25.64 105.27 25.2Q104.7 24.9 104.23 24.49Q103.63 23.97 103.2 23.26C102.7 22.42 102.45 21.4 102.45 20.22L102.45 19.93C102.45 18.74 102.7 17.74 103.2 16.91C103.72 16.06 104.41 15.42 105.27 14.97C106.15 14.51 107.13 14.28 108.21 14.28C109.29 14.28 110.21 14.48 110.97 14.86C111.73 15.25 112.33 15.76 112.79 16.4C113.26 17.03 113.56 17.74 113.7 18.51L111.42 18.97C111.35 18.48 111.19 18.04 110.94 17.64C110.7 17.24 110.36 16.92 109.92 16.68C109.48 16.45 108.92 16.33 108.26 16.33C107.6 16.33 107.01 16.48 106.48 16.77C105.96 17.05 105.55 17.47 105.25 18.02C104.95 18.55 104.79 19.2 104.79 19.97L104.79 20.17C104.79 20.94 104.95 21.6 105.25 22.15C105.55 22.7 105.96 23.11 106.48 23.4C107.01 23.68 107.6 23.82 108.26 23.82C109.24 23.82 109.99 23.57 110.51 23.08C111.03 22.58 111.35 21.94 111.49 21.17L113.77 21.68C113.59 22.44 113.26 23.14 112.79 23.77C112.33 24.41 111.73 24.92 110.97 25.31C110.21 25.68 109.29 25.86 108.21 25.86ZM131.69 25.86C130.89 25.86 130.17 25.73 129.53 25.46C128.91 25.2 128.41 24.8 128.03 24.28C127.66 23.77 127.48 23.14 127.48 22.4C127.48 21.64 127.66 21.02 128.03 20.53C128.41 20.02 128.91 19.65 129.55 19.4C130.2 19.14 130.94 19.02 131.76 19.02L135.18 19.02L135.18 18.31C135.18 17.67 134.98 17.16 134.59 16.77C134.19 16.39 133.58 16.2 132.76 16.2C131.96 16.2 131.34 16.38 130.92 16.75Q130.72 16.92 130.57 17.12Q130.22 17.58 130.08 18.2L127.89 17.51Q128.03 17.03 128.27 16.61L128.27 16.61Q128.48 16.24 128.75 15.91C129.16 15.42 129.7 15.02 130.37 14.73C131.04 14.43 131.84 14.28 132.79 14.28Q134.96 14.28 136.21 15.36Q136.22 15.36 136.23 15.37Q136.53 15.63 136.75 15.95Q137.48 16.94 137.48 18.46L137.48 22.97Q137.48 23.32 137.65 23.49Q137.81 23.64 138.12 23.64L139.07 23.64L139.07 25.55L137.32 25.55C136.79 25.55 136.35 25.42 136.02 25.15C135.69 24.88 135.52 24.52 135.52 24.06L135.52 24L135.18 24C135.06 24.22 134.87 24.48 134.63 24.77C134.39 25.07 134.03 25.33 133.56 25.55C133.09 25.76 132.47 25.86 131.69 25.86ZM152.54 20.13L152.54 19.79C152.54 18.64 152.78 17.65 153.25 16.84C153.73 16.02 154.37 15.4 155.16 14.95C155.95 14.51 156.82 14.28 157.76 14.28Q159.4 14.28 160.26 14.88C160.86 15.28 161.29 15.71 161.56 16.17L161.92 16.17L161.92 14.6L164.2 14.6L164.2 27.8C164.2 28.46 164 29 163.59 29.4C163.19 29.8 162.65 30 161.95 30L154.39 30L154.39 28L161.22 28C161.66 28 161.88 27.77 161.88 27.33L161.88 23.84L161.52 23.84C161.35 24.11 161.11 24.38 160.81 24.66C160.5 24.94 160.1 25.17 159.6 25.35C159.12 25.53 158.5 25.62 157.76 25.62C156.82 25.62 155.94 25.4 155.14 24.97C154.35 24.53 153.72 23.9 153.25 23.08C152.78 22.25 152.54 21.27 152.54 20.13ZM171.67 25.86Q169.96 25.86 168.68 25.17C167.83 24.7 167.16 24.04 166.68 23.2C166.21 22.34 165.97 21.34 165.97 20.22L165.97 19.95C165.97 18.81 166.21 17.82 166.68 16.97C167.15 16.11 167.8 15.45 168.64 15C169.49 14.52 170.47 14.28 171.57 14.28C172.65 14.28 173.59 14.52 174.4 15C175.22 15.45 175.86 16.1 176.31 16.93C176.77 17.76 177 18.73 177 19.84L177 20.71L168.36 20.71C168.39 21.67 168.72 22.44 169.34 23.02C169.98 23.58 170.77 23.86 171.71 23.86C172.59 23.86 173.25 23.67 173.69 23.28C174.15 22.9 174.5 22.45 174.74 21.95L176.68 22.93C176.46 23.34 176.15 23.78 175.74 24.24C175.35 24.7 174.82 25.08 174.17 25.4C173.52 25.71 172.68 25.86 171.67 25.86ZM140.21 25.55L140.21 14.6L142.51 14.6L142.51 16.24L142.88 16.24C143.09 15.8 143.47 15.38 144.02 15C144.56 14.61 145.38 14.42 146.46 14.42C147.31 14.42 148.06 14.6 148.71 14.97C149.38 15.34 149.9 15.87 150.28 16.55C150.66 17.22 150.85 18.02 150.85 18.97L150.85 25.55L148.5 25.55L148.5 19.15C148.5 18.2 148.26 17.51 147.78 17.06C147.29 16.6 146.62 16.37 145.77 16.37C144.8 16.37 144.02 16.68 143.43 17.31Q142.56 18.24 142.56 20.02L142.56 25.55L140.21 25.55ZM90.41 25.55L94.69 20.02L90.5 14.6L93.26 14.6L96.19 18.53L96.56 18.53L99.5 14.6L102.28 14.6L98.06 20.02L102.34 25.55L99.54 25.55L96.56 21.53L96.19 21.53L93.21 25.55L90.41 25.55ZM158.39 23.62Q159.48 23.62 160.29 23.14Q160.62 22.95 160.9 22.68C161.57 22.05 161.9 21.17 161.9 20.06L161.9 19.86C161.9 18.72 161.58 17.85 160.92 17.24Q160.67 16.99 160.37 16.81Q159.54 16.31 158.39 16.31C157.39 16.31 156.56 16.62 155.89 17.24C155.24 17.85 154.91 18.72 154.91 19.86L154.91 20.06C154.91 21.17 155.24 22.05 155.89 22.68C156.56 23.31 157.39 23.62 158.39 23.62ZM168.39 18.95L174.6 18.95C174.54 18.12 174.24 17.48 173.69 17.02C173.15 16.54 172.43 16.31 171.55 16.31C170.67 16.31 169.95 16.54 169.39 17.02C168.84 17.48 168.51 18.12 168.39 18.95ZM52.62 23.37L55.83 23.37C56.65 23.37 57.3 23.18 57.77 22.8Q58.01 22.59 58.17 22.34Q58.47 21.86 58.47 21.2L58.47 21C58.47 20.31 58.24 19.78 57.77 19.4Q57.08 18.82 55.83 18.82L52.62 18.82L52.62 23.37ZM132.03 23.97C132.98 23.97 133.74 23.71 134.31 23.2C134.89 22.66 135.18 21.94 135.18 21.02L135.18 20.8L131.9 20.8C131.28 20.8 130.77 20.93 130.39 21.2C130.02 21.45 129.83 21.82 129.83 22.33C129.83 22.83 130.02 23.23 130.42 23.53C130.81 23.82 131.35 23.97 132.03 23.97Z" fill="#EAB486" fill-opacity="1.000000" fill-rule="evenodd"/>
</svg>
