<svg width="97" height="96" viewBox="0 0 97 96" fill="none" xmlns="http://www.w3.org/2000/svg">
<g opacity="0.25" clip-path="url(#clip0_153_4331)">
<path d="M50.6294 95.9678C76.1969 95.9678 96.8878 75.277 96.8878 49.7095C96.8878 24.142 76.1969 3.45117 50.6294 3.45117C25.062 3.45117 4.37109 24.142 4.37109 49.7095C4.37109 75.277 25.062 95.9678 50.6294 95.9678Z" fill="#181818"/>
<path d="M38.2618 16.8228H63.9686C70.0993 16.8228 75.1152 21.8387 75.1152 27.9693V65.3801C75.1152 71.5107 70.0993 76.5267 63.9686 76.5267H38.2618C32.1312 76.5267 27.1152 71.5107 27.1152 65.3801V27.9693C27.1152 21.8387 32.1312 16.8228 38.2618 16.8228Z" fill="#F6F6F6"/>
<path d="M33.213 24.5601H48.6789C49.7239 24.5601 50.5599 25.3961 50.5599 26.4411C50.5599 27.486 49.7239 28.322 48.6789 28.322H33.213C32.168 28.322 31.332 27.486 31.332 26.4411C31.332 25.3961 32.168 24.5601 33.213 24.5601Z" fill="#8F8F8F"/>
<path d="M33.213 35.2188H67.9764C69.0214 35.2188 69.8574 36.0548 69.8574 37.0997C69.8574 38.1447 69.0214 38.9807 67.9764 38.9807H33.213C32.168 38.9807 31.332 38.1447 31.332 37.0997C31.332 36.0548 32.168 35.2188 33.213 35.2188Z" fill="#8F8F8F"/>
<path d="M33.213 45.9473H67.9764C69.0214 45.9473 69.8574 46.7833 69.8574 47.8283C69.8574 48.8733 69.0214 49.7093 67.9764 49.7093H33.213C32.168 49.7093 31.332 48.8733 31.332 47.8283C31.332 46.7833 32.168 45.9473 33.213 45.9473Z" fill="#8F8F8F"/>
<path d="M33.213 56.6763H67.9764C69.0214 56.6763 69.8574 57.5122 69.8574 58.5572C69.8574 59.6022 69.0214 60.4382 67.9764 60.4382H33.213C32.168 60.4382 31.332 59.6022 31.332 58.5572C31.332 57.5122 32.168 56.6763 33.213 56.6763Z" fill="#8F8F8F"/>
<path d="M33.213 67.4048H67.9764C69.0214 67.4048 69.8574 68.2408 69.8574 69.2858C69.8574 70.3308 69.0214 71.1668 67.9764 71.1668H33.213C32.168 71.1668 31.332 70.3308 31.332 69.2858C31.332 68.2408 32.168 67.4048 33.213 67.4048Z" fill="#8F8F8F"/>
<path d="M70.9547 80.5535C78.4787 80.4839 84.5396 74.3533 84.4699 66.8293C84.4003 59.3054 78.2 53.2444 70.7457 53.3141C63.2218 53.3837 57.2305 59.4447 57.2305 66.899C57.3001 74.4926 63.4308 80.5535 70.9547 80.5535Z" fill="#181818"/>
<path d="M73.3408 66.9169L76.6847 63.5729C77.3117 62.8762 77.3117 61.8312 76.6847 61.1346C75.9881 60.4379 74.9431 60.4379 74.2464 61.1346L70.9024 64.4785L67.5585 61.1346C66.8618 60.4379 65.8168 60.4379 65.1202 61.0649C64.4235 61.7616 64.4235 62.8066 65.1202 63.5032C65.1202 63.5032 65.1202 63.5032 65.1898 63.5729L68.5338 66.9169L65.1898 70.2609C64.4932 70.8879 64.4932 72.0025 65.1202 72.6992C65.1202 72.6992 65.1202 72.6992 65.1898 72.7688C65.8865 73.4655 67.0011 73.4655 67.6281 72.7688L70.9721 69.4249L74.3161 72.7688C75.0128 73.3958 76.0577 73.3262 76.6847 72.6992C77.3117 72.0722 77.3814 71.0272 76.7544 70.3305L73.3408 66.9169Z" fill="#8F8F8F"/>
<path d="M90.3406 88.5132L89.5046 87.1896L93.1969 85.0996L94.3813 86.2143C94.8689 86.7019 95.1476 87.3986 95.0779 88.0952C95.1476 88.8616 94.8689 89.6279 94.3813 90.1852C93.8936 90.7426 93.1969 91.0909 92.5003 91.1606C91.734 91.2302 91.0373 90.9516 90.48 90.3942L89.435 89.4189L88.3203 88.3042L90.3406 88.5132Z" fill="#8F8F8F"/>
<path fill-rule="evenodd" clip-rule="evenodd" d="M70.8343 82.6615C73.9693 82.6615 77.0346 81.7559 79.6122 80.0142L89.8532 89.8371L93.5455 85.5178L83.6529 76.0432C88.6688 68.9373 86.9969 59.1144 79.8909 54.0984C72.785 49.0824 62.962 50.7544 57.9461 57.8604C52.9301 64.9663 54.6021 74.7892 61.708 79.8052C64.425 81.6862 67.6297 82.6615 70.8343 82.6615ZM84.2799 66.917C84.2799 74.3016 78.2886 80.2232 70.9736 80.2232C63.589 80.2232 57.6674 74.2319 57.6674 66.917C57.6674 59.602 63.6587 53.6107 70.9736 53.6107C78.3582 53.6107 84.2799 59.602 84.2799 66.917Z" fill="#8F8F8F"/>
<path d="M15.518 70.679L24.7836 74.2319L16.0056 77.7152L12.5223 86.5629L9.03901 77.7152L0.191406 74.2319L9.38734 70.9577L12.5223 61.9707L15.518 70.679Z" fill="#8F8F8F"/>
<path d="M84.766 8.67605L94.0316 12.229L85.2537 15.7123L81.7704 24.5599L78.2871 15.7123L69.4395 12.229L78.6354 8.95473L81.7704 -0.0322266L84.766 8.67605Z" fill="#8F8F8F"/>
</g>
<defs>
<clipPath id="clip0_153_4331">
<rect width="96.6967" height="96" fill="white" transform="translate(0.152344)"/>
</clipPath>
</defs>
</svg>
