<svg width="97" height="96" viewBox="0 0 97 96" fill="none" xmlns="http://www.w3.org/2000/svg">
<path d="M50.6294 95.9678C76.1969 95.9678 96.8878 75.277 96.8878 49.7095C96.8878 24.142 76.1969 3.45117 50.6294 3.45117C25.062 3.45117 4.37109 24.142 4.37109 49.7095C4.37109 75.277 25.062 95.9678 50.6294 95.9678Z" fill="#181818"/>
<path d="M38.2618 16.8229H63.9686C70.0993 16.8229 75.1152 21.8388 75.1152 27.9695V65.3802C75.1152 71.5108 70.0993 76.5268 63.9686 76.5268H38.2618C32.1312 76.5268 27.1152 71.5108 27.1152 65.3802V27.9695C27.1152 21.8388 32.1312 16.8229 38.2618 16.8229Z" fill="#A1A1A1"/>
<path d="M33.213 24.5601H48.6789C49.7239 24.5601 50.5599 25.3961 50.5599 26.4411C50.5599 27.486 49.7239 28.322 48.6789 28.322H33.213C32.168 28.322 31.332 27.486 31.332 26.4411C31.332 25.3961 32.168 24.5601 33.213 24.5601Z" fill="#454545"/>
<path d="M33.213 35.219H67.9764C69.0214 35.219 69.8574 36.055 69.8574 37.1C69.8574 38.145 69.0214 38.981 67.9764 38.981H33.213C32.168 38.981 31.332 38.145 31.332 37.1C31.332 36.055 32.168 35.219 33.213 35.219Z" fill="#454545"/>
<path d="M33.213 45.9476H67.9764C69.0214 45.9476 69.8574 46.7836 69.8574 47.8286C69.8574 48.8736 69.0214 49.7096 67.9764 49.7096H33.213C32.168 49.7096 31.332 48.8736 31.332 47.8286C31.332 46.7836 32.168 45.9476 33.213 45.9476Z" fill="#454545"/>
<path d="M33.213 56.6761H67.9764C69.0214 56.6761 69.8574 57.5121 69.8574 58.5571C69.8574 59.6021 69.0214 60.4381 67.9764 60.4381H33.213C32.168 60.4381 31.332 59.6021 31.332 58.5571C31.332 57.5121 32.168 56.6761 33.213 56.6761Z" fill="#454545"/>
<path d="M33.213 67.4048H67.9764C69.0214 67.4048 69.8574 68.2408 69.8574 69.2858C69.8574 70.3308 69.0214 71.1668 67.9764 71.1668H33.213C32.168 71.1668 31.332 70.3308 31.332 69.2858C31.332 68.2408 32.168 67.4048 33.213 67.4048Z" fill="#454545"/>
<path d="M70.9547 80.5535C78.4787 80.4839 84.5396 74.3533 84.4699 66.8293C84.4003 59.3054 78.2 53.2444 70.7457 53.3141C63.2218 53.3837 57.2305 59.4447 57.2305 66.899C57.3001 74.4926 63.4308 80.5535 70.9547 80.5535Z" fill="#181818"/>
<path d="M73.3408 66.9171L76.6847 63.5731C77.3117 62.8765 77.3117 61.8315 76.6847 61.1348C75.9881 60.4381 74.9431 60.4381 74.2464 61.1348L70.9024 64.4788L67.5585 61.1348C66.8618 60.4381 65.8168 60.4382 65.1202 61.0652C64.4235 61.7618 64.4235 62.8068 65.1202 63.5035C65.1202 63.5035 65.1202 63.5035 65.1898 63.5731L68.5338 66.9171L65.1898 70.2611C64.4932 70.8881 64.4932 72.0028 65.1202 72.6994C65.1202 72.6994 65.1202 72.6994 65.1898 72.7691C65.8865 73.4657 67.0011 73.4657 67.6281 72.7691L70.9721 69.4251L74.3161 72.7691C75.0128 73.3961 76.0577 73.3264 76.6847 72.6994C77.3117 72.0724 77.3814 71.0274 76.7544 70.3308L73.3408 66.9171Z" fill="#454545"/>
<path d="M90.3387 88.5136L89.5027 87.19L93.195 85.1L94.3793 86.2146C94.867 86.7023 95.1456 87.399 95.076 88.0956C95.1456 88.8619 94.867 89.6283 94.3793 90.1856C93.8917 90.7429 93.195 91.0913 92.4983 91.1609C91.732 91.2306 91.0353 90.9519 90.478 90.3946L89.433 89.4193L88.3184 88.3046L90.3387 88.5136Z" fill="#454545"/>
<path fill-rule="evenodd" clip-rule="evenodd" d="M70.8343 82.6617C73.9693 82.6617 77.0346 81.756 79.6122 80.0144L89.8532 89.8373L93.5455 85.518L83.6529 76.0434C88.6688 68.9374 86.9969 59.1145 79.8909 54.0985C72.785 49.0826 62.962 50.7545 57.9461 57.8605C52.9301 64.9664 54.6021 74.7894 61.708 79.8053C64.425 81.6863 67.6297 82.6617 70.8343 82.6617ZM84.2799 66.9171C84.2799 74.3017 78.2886 80.2233 70.9736 80.2233C63.589 80.2233 57.6674 74.232 57.6674 66.9171C57.6674 59.6021 63.6587 53.6109 70.9736 53.6109C78.3582 53.6109 84.2799 59.6021 84.2799 66.9171Z" fill="#454545"/>
<path d="M15.518 70.6791L24.7836 74.2321L16.0056 77.7154L12.5223 86.563L9.03901 77.7154L0.191406 74.2321L9.38734 70.9578L12.5223 61.9708L15.518 70.6791Z" fill="#454545"/>
<path d="M84.766 8.67617L94.0316 12.2291L85.2537 15.7124L81.7704 24.56L78.2871 15.7124L69.4395 12.2291L78.6354 8.95485L81.7704 -0.0321045L84.766 8.67617Z" fill="#454545"/>
</svg>
