<svg width="24" height="24" viewBox="0 0 24 24" fill="none" xmlns="http://www.w3.org/2000/svg">
<path d="M5.64625 10.2927H5.01062V9.03125C5.01062 8.93179 4.97112 8.83641 4.90079 8.76608C4.83046 8.69576 4.73508 8.65625 4.63562 8.65625C4.53617 8.65625 4.44079 8.69576 4.37046 8.76608C4.30013 8.83641 4.26062 8.93179 4.26062 9.03125V10.2927H3.625C3.42627 10.2933 3.23584 10.3725 3.09531 10.513C2.95479 10.6535 2.87558 10.844 2.875 11.0427V20.1139C2.87497 20.2124 2.89436 20.31 2.93204 20.401C2.96972 20.492 3.02496 20.5747 3.09461 20.6443C3.16426 20.714 3.24695 20.7692 3.33796 20.8069C3.42896 20.8446 3.5265 20.864 3.625 20.8639H4.26062V22.1277C4.26209 22.2262 4.30224 22.3201 4.37241 22.3893C4.44258 22.4584 4.53713 22.4972 4.63563 22.4972C4.73414 22.4972 4.82869 22.4584 4.89885 22.3893C4.96902 22.3201 5.00917 22.2262 5.01062 22.1277V20.8639H5.64625C5.74475 20.864 5.84229 20.8446 5.9333 20.8069C6.0243 20.7692 6.10699 20.714 6.17664 20.6443C6.24629 20.5747 6.30154 20.492 6.33922 20.401C6.3769 20.31 6.39628 20.2124 6.39625 20.1139V11.0427C6.39567 10.844 6.31647 10.6535 6.17594 10.513C6.03541 10.3725 5.84498 10.2933 5.64625 10.2927Z" fill="black"/>
<path d="M10.5566 5.63657H9.92343V4.375C9.92343 4.27554 9.88393 4.18016 9.8136 4.10983C9.74327 4.03951 9.64789 4 9.54843 4C9.44898 4 9.3536 4.03951 9.28327 4.10983C9.21294 4.18016 9.17343 4.27554 9.17343 4.375V5.63657H8.53906C8.34033 5.63716 8.1499 5.71636 8.00937 5.85689C7.86885 5.99741 7.78964 6.18784 7.78906 6.38658V15.4578C7.78903 15.5563 7.80841 15.6539 7.8461 15.7449C7.88378 15.8359 7.93902 15.9186 8.00867 15.9882C8.07832 16.0579 8.16101 16.1131 8.25202 16.1508C8.34302 16.1885 8.44056 16.2079 8.53906 16.2078H9.17343V17.4714C9.17489 17.5699 9.21505 17.6639 9.28522 17.733C9.35539 17.8022 9.44994 17.8409 9.54844 17.8409C9.64694 17.8409 9.74149 17.8021 9.81166 17.733C9.88182 17.6639 9.92197 17.5699 9.92343 17.4714V16.2078H10.5566C10.6551 16.2082 10.7528 16.189 10.844 16.1514C10.9351 16.1139 11.0179 16.0586 11.0877 15.9889C11.1574 15.9192 11.2126 15.8364 11.2502 15.7452C11.2877 15.6541 11.3069 15.5564 11.3066 15.4578V6.38658C11.3066 6.28808 11.2872 6.19054 11.2495 6.09953C11.2118 6.00852 11.1566 5.92583 11.087 5.85619C11.0173 5.78654 10.9346 5.73129 10.8436 5.69361C10.7526 5.65593 10.6551 5.63655 10.5566 5.63657Z" fill="black"/>
<path d="M15.4706 8.25497H14.8363V6.99219C14.8363 6.89273 14.7967 6.79735 14.7264 6.72702C14.6561 6.6567 14.5607 6.61719 14.4613 6.61719C14.3618 6.61719 14.2664 6.6567 14.1961 6.72702C14.1258 6.79735 14.0863 6.89273 14.0863 6.99219V8.25497H13.4531C13.3546 8.25494 13.2571 8.27432 13.1661 8.312C13.0751 8.34968 12.9924 8.40493 12.9227 8.47458C12.8531 8.54423 12.7978 8.62692 12.7602 8.71792C12.7225 8.80893 12.7031 8.90647 12.7031 9.00497V18.0762C12.7031 18.1747 12.7225 18.2723 12.7602 18.3633C12.7978 18.4543 12.8531 18.537 12.9227 18.6066C12.9924 18.6763 13.0751 18.7315 13.1661 18.7692C13.2571 18.8069 13.3546 18.8262 13.4531 18.8262H14.0863V20.0886C14.0877 20.1871 14.1279 20.2811 14.198 20.3502C14.2682 20.4193 14.3628 20.4581 14.4613 20.4581C14.5598 20.4581 14.6543 20.4193 14.7245 20.3502C14.7946 20.2811 14.8348 20.1871 14.8363 20.0886V18.8262H15.4706C15.6694 18.8256 15.8598 18.7464 16.0003 18.6059C16.1408 18.4654 16.22 18.275 16.2206 18.0762V9.00497C16.22 8.80624 16.1408 8.6158 16.0003 8.47528C15.8598 8.33475 15.6694 8.25555 15.4706 8.25497Z" fill="black"/>
<path d="M20.3806 3.13875H19.745V1.875C19.745 1.77554 19.7055 1.68016 19.6352 1.60984C19.5648 1.53951 19.4695 1.5 19.37 1.5C19.2705 1.5 19.1752 1.53951 19.1048 1.60984C19.0345 1.68016 18.995 1.77554 18.995 1.875V3.13875H18.3594C18.2609 3.13872 18.1633 3.1581 18.0723 3.19578C17.9813 3.23346 17.8986 3.28871 17.829 3.35836C17.7593 3.42801 17.7041 3.5107 17.6664 3.6017C17.6287 3.69271 17.6093 3.79025 17.6094 3.88875V12.96C17.61 13.1587 17.6892 13.3492 17.8297 13.4897C17.9702 13.6302 18.1606 13.7094 18.3594 13.71H18.995V14.9714C18.9965 15.0699 19.0366 15.1639 19.1068 15.233C19.177 15.3022 19.2715 15.3409 19.37 15.3409C19.4685 15.3409 19.5631 15.3021 19.6332 15.233C19.7034 15.1639 19.7435 15.0699 19.745 14.9714V13.71H20.3806C20.5794 13.7094 20.7698 13.6302 20.9103 13.4897C21.0508 13.3492 21.13 13.1587 21.1306 12.96V3.88875C21.1307 3.79025 21.1113 3.69271 21.0736 3.60171C21.0359 3.5107 20.9807 3.42801 20.911 3.35836C20.8414 3.28871 20.7587 3.23347 20.6677 3.19579C20.5767 3.15811 20.4791 3.13872 20.3806 3.13875Z" fill="black"/>
</svg>
